<mxfile host="65bd71144e">
    <diagram id="6I0OCvxSQrVGMHxT2VVA" name="Page-1">
        <mxGraphModel dx="1146" dy="778" grid="1" gridSize="10" guides="1" tooltips="1" connect="1" arrows="1" fold="1" page="1" pageScale="1" pageWidth="850" pageHeight="1100" background="#E6E6E6" math="0" shadow="1">
            <root>
                <mxCell id="0"/>
                <mxCell id="1" parent="0"/>
                <mxCell id="75" value="" style="ellipse;whiteSpace=wrap;html=1;aspect=fixed;fillColor=#669E41;fontColor=#ffffff;strokeColor=#55932f;" vertex="1" parent="1">
                    <mxGeometry x="360" y="190" width="240" height="240" as="geometry"/>
                </mxCell>
                <mxCell id="76" value="" style="ellipse;whiteSpace=wrap;html=1;aspect=fixed;strokeColor=#005700;fillColor=#008a00;fontColor=#ffffff;" vertex="1" parent="1">
                    <mxGeometry x="435" y="265" width="90" height="90" as="geometry"/>
                </mxCell>
                <mxCell id="77" value="" style="endArrow=none;html=1;entryX=0.5;entryY=0;entryDx=0;entryDy=0;exitX=0.5;exitY=0;exitDx=0;exitDy=0;" edge="1" parent="1" source="76" target="75">
                    <mxGeometry width="50" height="50" relative="1" as="geometry">
                        <mxPoint x="485" y="275" as="sourcePoint"/>
                        <mxPoint x="535" y="225" as="targetPoint"/>
                        <Array as="points"/>
                    </mxGeometry>
                </mxCell>
                <mxCell id="78" value="" style="endArrow=none;html=1;entryX=0.5;entryY=1;entryDx=0;entryDy=0;exitX=0.5;exitY=1;exitDx=0;exitDy=0;" edge="1" parent="1" source="75" target="76">
                    <mxGeometry width="50" height="50" relative="1" as="geometry">
                        <mxPoint x="489.58" y="420" as="sourcePoint"/>
                        <mxPoint x="489.58" y="365" as="targetPoint"/>
                    </mxGeometry>
                </mxCell>
                <mxCell id="79" value="" style="endArrow=none;html=1;entryX=1;entryY=0.5;entryDx=0;entryDy=0;exitX=1;exitY=0.5;exitDx=0;exitDy=0;" edge="1" parent="1" source="76" target="75">
                    <mxGeometry width="50" height="50" relative="1" as="geometry">
                        <mxPoint x="500" y="285" as="sourcePoint"/>
                        <mxPoint x="500" y="230" as="targetPoint"/>
                    </mxGeometry>
                </mxCell>
                <mxCell id="80" value="" style="endArrow=none;html=1;entryX=0;entryY=0.5;entryDx=0;entryDy=0;exitX=0;exitY=0.5;exitDx=0;exitDy=0;" edge="1" parent="1" source="75" target="76">
                    <mxGeometry width="50" height="50" relative="1" as="geometry">
                        <mxPoint x="390" y="319.58" as="sourcePoint"/>
                        <mxPoint x="445" y="319.58" as="targetPoint"/>
                    </mxGeometry>
                </mxCell>
                <mxCell id="81" value="" style="endArrow=none;html=1;entryX=0;entryY=1;entryDx=0;entryDy=0;exitX=0;exitY=1;exitDx=0;exitDy=0;" edge="1" parent="1" source="75" target="76">
                    <mxGeometry width="50" height="50" relative="1" as="geometry">
                        <mxPoint x="420" y="390" as="sourcePoint"/>
                        <mxPoint x="455" y="329.5799999999999" as="targetPoint"/>
                    </mxGeometry>
                </mxCell>
                <mxCell id="82" value="" style="endArrow=none;html=1;entryX=1;entryY=0;entryDx=0;entryDy=0;exitX=1;exitY=0;exitDx=0;exitDy=0;" edge="1" parent="1" source="76" target="75">
                    <mxGeometry width="50" height="50" relative="1" as="geometry">
                        <mxPoint x="520" y="289" as="sourcePoint"/>
                        <mxPoint x="558.8901948466055" y="249.9998051533948" as="targetPoint"/>
                    </mxGeometry>
                </mxCell>
                <mxCell id="83" value="" style="endArrow=none;html=1;entryX=1;entryY=1;entryDx=0;entryDy=0;exitX=1;exitY=1;exitDx=0;exitDy=0;" edge="1" parent="1" source="76" target="75">
                    <mxGeometry width="50" height="50" relative="1" as="geometry">
                        <mxPoint x="529.9993218813458" y="298.8906781186547" as="sourcePoint"/>
                        <mxPoint x="568.8901948466057" y="259.99980515339485" as="targetPoint"/>
                    </mxGeometry>
                </mxCell>
                <mxCell id="84" value="" style="endArrow=none;html=1;entryX=0;entryY=0;entryDx=0;entryDy=0;exitX=0;exitY=0;exitDx=0;exitDy=0;" edge="1" parent="1" source="75" target="76">
                    <mxGeometry width="50" height="50" relative="1" as="geometry">
                        <mxPoint x="424.9998051533948" y="249.9998051533948" as="sourcePoint"/>
                        <mxPoint x="463.8906781186551" y="288.8906781186551" as="targetPoint"/>
                    </mxGeometry>
                </mxCell>
                <mxCell id="87" value="" style="endArrow=classic;html=1;exitX=0.5;exitY=0.5;exitDx=0;exitDy=0;exitPerimeter=0;entryX=0.633;entryY=0.028;entryDx=0;entryDy=0;entryPerimeter=0;" edge="1" parent="1" source="76" target="76">
                    <mxGeometry width="50" height="50" relative="1" as="geometry">
                        <mxPoint x="490" y="320" as="sourcePoint"/>
                        <mxPoint x="500" y="270" as="targetPoint"/>
                    </mxGeometry>
                </mxCell>
                <mxCell id="91" value="1" style="text;html=1;align=center;verticalAlign=middle;resizable=0;points=[];autosize=1;strokeColor=none;fillColor=none;" vertex="1" parent="1">
                    <mxGeometry x="505" y="230" width="30" height="30" as="geometry"/>
                </mxCell>
                <mxCell id="92" value="2" style="text;html=1;align=center;verticalAlign=middle;resizable=0;points=[];autosize=1;strokeColor=none;fillColor=none;" vertex="1" parent="1">
                    <mxGeometry x="560" y="275" width="30" height="30" as="geometry"/>
                </mxCell>
                <mxCell id="93" value="3" style="text;html=1;align=center;verticalAlign=middle;resizable=0;points=[];autosize=1;strokeColor=none;fillColor=none;" vertex="1" parent="1">
                    <mxGeometry x="560" y="335" width="30" height="30" as="geometry"/>
                </mxCell>
                <mxCell id="94" value="4" style="text;html=1;align=center;verticalAlign=middle;resizable=0;points=[];autosize=1;strokeColor=none;fillColor=none;" vertex="1" parent="1">
                    <mxGeometry x="505" y="380" width="30" height="30" as="geometry"/>
                </mxCell>
                <mxCell id="95" value="5" style="text;html=1;align=center;verticalAlign=middle;resizable=0;points=[];autosize=1;strokeColor=none;fillColor=none;" vertex="1" parent="1">
                    <mxGeometry x="440" y="380" width="30" height="30" as="geometry"/>
                </mxCell>
                <mxCell id="96" value="6" style="text;html=1;align=center;verticalAlign=middle;resizable=0;points=[];autosize=1;strokeColor=none;fillColor=none;" vertex="1" parent="1">
                    <mxGeometry x="390" y="335" width="30" height="30" as="geometry"/>
                </mxCell>
                <mxCell id="97" value="..." style="text;html=1;align=center;verticalAlign=middle;resizable=0;points=[];autosize=1;strokeColor=none;fillColor=none;" vertex="1" parent="1">
                    <mxGeometry x="390" y="275" width="30" height="30" as="geometry"/>
                </mxCell>
                <mxCell id="99" value="N" style="text;html=1;align=center;verticalAlign=middle;resizable=0;points=[];autosize=1;strokeColor=none;fillColor=none;" vertex="1" parent="1">
                    <mxGeometry x="440" y="230" width="30" height="30" as="geometry"/>
                </mxCell>
                <mxCell id="102" value="" style="endArrow=classic;html=1;exitX=0.669;exitY=0.036;exitDx=0;exitDy=0;exitPerimeter=0;" edge="1" parent="1">
                    <mxGeometry width="50" height="50" relative="1" as="geometry">
                        <mxPoint x="535" y="199.3599999999999" as="sourcePoint"/>
                        <mxPoint x="571.06" y="160" as="targetPoint"/>
                    </mxGeometry>
                </mxCell>
                <mxCell id="104" value="定时器" style="rounded=0;whiteSpace=wrap;html=1;strokeColor=#0e8088;fillColor=#b0e3e6;" vertex="1" parent="1">
                    <mxGeometry x="571.06" y="150" width="50" height="20" as="geometry"/>
                </mxCell>
                <mxCell id="106" value="定时器" style="rounded=0;whiteSpace=wrap;html=1;strokeColor=#0e8088;fillColor=#b0e3e6;" vertex="1" parent="1">
                    <mxGeometry x="731.06" y="150" width="50" height="20" as="geometry"/>
                </mxCell>
                <mxCell id="107" value="定时器" style="rounded=0;whiteSpace=wrap;html=1;strokeColor=#0e8088;fillColor=#b0e3e6;" vertex="1" parent="1">
                    <mxGeometry x="651.06" y="150" width="50" height="20" as="geometry"/>
                </mxCell>
                <mxCell id="108" value="" style="endArrow=classic;html=1;exitX=1;exitY=0.5;exitDx=0;exitDy=0;entryX=0;entryY=0.5;entryDx=0;entryDy=0;" edge="1" parent="1" source="104" target="107">
                    <mxGeometry width="50" height="50" relative="1" as="geometry">
                        <mxPoint x="621.06" y="140" as="sourcePoint"/>
                        <mxPoint x="671.06" y="90" as="targetPoint"/>
                    </mxGeometry>
                </mxCell>
                <mxCell id="109" value="" style="endArrow=classic;html=1;exitX=1;exitY=0.5;exitDx=0;exitDy=0;entryX=0;entryY=0.5;entryDx=0;entryDy=0;" edge="1" parent="1" source="107" target="106">
                    <mxGeometry width="50" height="50" relative="1" as="geometry">
                        <mxPoint x="631.06" y="170" as="sourcePoint"/>
                        <mxPoint x="661.06" y="170" as="targetPoint"/>
                    </mxGeometry>
                </mxCell>
                <mxCell id="110" value="" style="endArrow=classic;html=1;entryX=0;entryY=0.5;entryDx=0;entryDy=0;exitX=0.725;exitY=0.958;exitDx=0;exitDy=0;exitPerimeter=0;" edge="1" parent="1" source="75" target="111">
                    <mxGeometry width="50" height="50" relative="1" as="geometry">
                        <mxPoint x="520" y="420" as="sourcePoint"/>
                        <mxPoint x="571.0599999999997" y="460" as="targetPoint"/>
                    </mxGeometry>
                </mxCell>
                <mxCell id="111" value="定时器" style="rounded=0;whiteSpace=wrap;html=1;strokeColor=#0e8088;fillColor=#b0e3e6;" vertex="1" parent="1">
                    <mxGeometry x="580" y="420" width="50" height="20" as="geometry"/>
                </mxCell>
                <mxCell id="112" value="定时器" style="rounded=0;whiteSpace=wrap;html=1;strokeColor=#0e8088;fillColor=#b0e3e6;" vertex="1" parent="1">
                    <mxGeometry x="740" y="420" width="50" height="20" as="geometry"/>
                </mxCell>
                <mxCell id="113" value="定时器" style="rounded=0;whiteSpace=wrap;html=1;strokeColor=#0e8088;fillColor=#b0e3e6;" vertex="1" parent="1">
                    <mxGeometry x="660" y="420" width="50" height="20" as="geometry"/>
                </mxCell>
                <mxCell id="114" value="" style="endArrow=classic;html=1;exitX=1;exitY=0.5;exitDx=0;exitDy=0;entryX=0;entryY=0.5;entryDx=0;entryDy=0;" edge="1" parent="1" source="111" target="113">
                    <mxGeometry width="50" height="50" relative="1" as="geometry">
                        <mxPoint x="630" y="410" as="sourcePoint"/>
                        <mxPoint x="680" y="360" as="targetPoint"/>
                    </mxGeometry>
                </mxCell>
                <mxCell id="115" value="" style="endArrow=classic;html=1;exitX=1;exitY=0.5;exitDx=0;exitDy=0;entryX=0;entryY=0.5;entryDx=0;entryDy=0;" edge="1" parent="1" source="113" target="112">
                    <mxGeometry width="50" height="50" relative="1" as="geometry">
                        <mxPoint x="640" y="440" as="sourcePoint"/>
                        <mxPoint x="670" y="440" as="targetPoint"/>
                    </mxGeometry>
                </mxCell>
                <mxCell id="116" value="" style="endArrow=classic;html=1;exitX=0.985;exitY=0.38;exitDx=0;exitDy=0;exitPerimeter=0;" edge="1" parent="1" source="75">
                    <mxGeometry width="50" height="50" relative="1" as="geometry">
                        <mxPoint x="620" y="319.9999999999999" as="sourcePoint"/>
                        <mxPoint x="656.0599999999997" y="280.64" as="targetPoint"/>
                    </mxGeometry>
                </mxCell>
                <mxCell id="117" value="定时器" style="rounded=0;whiteSpace=wrap;html=1;strokeColor=#0e8088;fillColor=#b0e3e6;" vertex="1" parent="1">
                    <mxGeometry x="656.06" y="270.64" width="50" height="20" as="geometry"/>
                </mxCell>
                <mxCell id="119" value="定时器" style="rounded=0;whiteSpace=wrap;html=1;strokeColor=#0e8088;fillColor=#b0e3e6;" vertex="1" parent="1">
                    <mxGeometry x="736.06" y="270.64" width="50" height="20" as="geometry"/>
                </mxCell>
                <mxCell id="120" value="" style="endArrow=classic;html=1;exitX=1;exitY=0.5;exitDx=0;exitDy=0;entryX=0;entryY=0.5;entryDx=0;entryDy=0;" edge="1" parent="1" source="117" target="119">
                    <mxGeometry width="50" height="50" relative="1" as="geometry">
                        <mxPoint x="706.06" y="260.64" as="sourcePoint"/>
                        <mxPoint x="756.06" y="210.64" as="targetPoint"/>
                    </mxGeometry>
                </mxCell>
                <mxCell id="89" value="si" style="text;html=1;align=center;verticalAlign=middle;resizable=0;points=[];autosize=1;strokeColor=none;fillColor=none;" vertex="1" parent="1">
                    <mxGeometry x="480" y="275" width="30" height="30" as="geometry"/>
                </mxCell>
                <mxCell id="123" value="" style="endArrow=classic;html=1;dashed=1;" edge="1" parent="1">
                    <mxGeometry width="50" height="50" relative="1" as="geometry">
                        <mxPoint x="480" y="310" as="sourcePoint"/>
                        <mxPoint x="520" y="290" as="targetPoint"/>
                    </mxGeometry>
                </mxCell>
                <mxCell id="124" value="定时器" style="rounded=0;whiteSpace=wrap;html=1;strokeColor=#0e8088;fillColor=#b0e3e6;" vertex="1" parent="1">
                    <mxGeometry x="180" y="420" width="50" height="20" as="geometry"/>
                </mxCell>
                <mxCell id="125" value="定时器" style="rounded=0;whiteSpace=wrap;html=1;strokeColor=#0e8088;fillColor=#b0e3e6;" vertex="1" parent="1">
                    <mxGeometry x="340" y="420" width="50" height="20" as="geometry"/>
                </mxCell>
                <mxCell id="126" value="定时器" style="rounded=0;whiteSpace=wrap;html=1;strokeColor=#0e8088;fillColor=#b0e3e6;" vertex="1" parent="1">
                    <mxGeometry x="260" y="420" width="50" height="20" as="geometry"/>
                </mxCell>
                <mxCell id="129" value="定时器" style="rounded=0;whiteSpace=wrap;html=1;strokeColor=#0e8088;fillColor=#b0e3e6;" vertex="1" parent="1">
                    <mxGeometry x="100" y="420" width="50" height="20" as="geometry"/>
                </mxCell>
                <mxCell id="130" value="" style="endArrow=classic;html=1;entryX=1;entryY=0.5;entryDx=0;entryDy=0;exitX=0;exitY=0.5;exitDx=0;exitDy=0;" edge="1" parent="1" source="125" target="126">
                    <mxGeometry width="50" height="50" relative="1" as="geometry">
                        <mxPoint x="290" y="540" as="sourcePoint"/>
                        <mxPoint x="340" y="490" as="targetPoint"/>
                    </mxGeometry>
                </mxCell>
                <mxCell id="131" value="" style="endArrow=classic;html=1;entryX=1;entryY=0.5;entryDx=0;entryDy=0;exitX=0;exitY=0.5;exitDx=0;exitDy=0;" edge="1" parent="1" source="126" target="124">
                    <mxGeometry width="50" height="50" relative="1" as="geometry">
                        <mxPoint x="350" y="440" as="sourcePoint"/>
                        <mxPoint x="320" y="440" as="targetPoint"/>
                    </mxGeometry>
                </mxCell>
                <mxCell id="132" value="" style="endArrow=classic;html=1;entryX=1;entryY=0.5;entryDx=0;entryDy=0;exitX=0;exitY=0.5;exitDx=0;exitDy=0;" edge="1" parent="1" source="124" target="129">
                    <mxGeometry width="50" height="50" relative="1" as="geometry">
                        <mxPoint x="270" y="440" as="sourcePoint"/>
                        <mxPoint x="240" y="440" as="targetPoint"/>
                    </mxGeometry>
                </mxCell>
                <mxCell id="133" value="" style="endArrow=classic;html=1;exitX=0.303;exitY=0.964;exitDx=0;exitDy=0;exitPerimeter=0;" edge="1" parent="1" source="75">
                    <mxGeometry width="50" height="50" relative="1" as="geometry">
                        <mxPoint x="280" y="450" as="sourcePoint"/>
                        <mxPoint x="390" y="430" as="targetPoint"/>
                    </mxGeometry>
                </mxCell>
                <mxCell id="134" value="定时器" style="rounded=0;whiteSpace=wrap;html=1;strokeColor=#0e8088;fillColor=#b0e3e6;" vertex="1" parent="1">
                    <mxGeometry x="110" y="345" width="50" height="20" as="geometry"/>
                </mxCell>
                <mxCell id="135" value="定时器" style="rounded=0;whiteSpace=wrap;html=1;strokeColor=#0e8088;fillColor=#b0e3e6;" vertex="1" parent="1">
                    <mxGeometry x="270" y="345" width="50" height="20" as="geometry"/>
                </mxCell>
                <mxCell id="136" value="定时器" style="rounded=0;whiteSpace=wrap;html=1;strokeColor=#0e8088;fillColor=#b0e3e6;" vertex="1" parent="1">
                    <mxGeometry x="190" y="345" width="50" height="20" as="geometry"/>
                </mxCell>
                <mxCell id="137" value="" style="endArrow=classic;html=1;entryX=1;entryY=0.5;entryDx=0;entryDy=0;exitX=0;exitY=0.5;exitDx=0;exitDy=0;" edge="1" parent="1" source="135" target="136">
                    <mxGeometry width="50" height="50" relative="1" as="geometry">
                        <mxPoint x="220" y="465" as="sourcePoint"/>
                        <mxPoint x="270" y="415" as="targetPoint"/>
                    </mxGeometry>
                </mxCell>
                <mxCell id="138" value="" style="endArrow=classic;html=1;entryX=1;entryY=0.5;entryDx=0;entryDy=0;exitX=0;exitY=0.5;exitDx=0;exitDy=0;" edge="1" parent="1" source="136" target="134">
                    <mxGeometry width="50" height="50" relative="1" as="geometry">
                        <mxPoint x="280" y="365" as="sourcePoint"/>
                        <mxPoint x="250" y="365" as="targetPoint"/>
                    </mxGeometry>
                </mxCell>
                <mxCell id="139" value="" style="endArrow=classic;html=1;exitX=0.021;exitY=0.668;exitDx=0;exitDy=0;exitPerimeter=0;" edge="1" parent="1" source="75">
                    <mxGeometry width="50" height="50" relative="1" as="geometry">
                        <mxPoint x="362.7199999999998" y="346.3599999999999" as="sourcePoint"/>
                        <mxPoint x="320" y="355" as="targetPoint"/>
                    </mxGeometry>
                </mxCell>
                <mxCell id="140" value="" style="edgeStyle=segmentEdgeStyle;endArrow=classic;html=1;curved=0;rounded=0;endSize=8;startSize=8;entryX=0.292;entryY=0.042;entryDx=0;entryDy=0;entryPerimeter=0;" edge="1" parent="1" target="75">
                    <mxGeometry width="50" height="50" relative="1" as="geometry">
                        <mxPoint x="400" y="160" as="sourcePoint"/>
                        <mxPoint x="380" y="110" as="targetPoint"/>
                        <Array as="points">
                            <mxPoint x="430" y="160"/>
                        </Array>
                    </mxGeometry>
                </mxCell>
                <mxCell id="141" value="slot" style="text;html=1;align=center;verticalAlign=middle;resizable=0;points=[];autosize=1;strokeColor=none;fillColor=none;" vertex="1" parent="1">
                    <mxGeometry x="395" y="140" width="40" height="30" as="geometry"/>
                </mxCell>
            </root>
        </mxGraphModel>
    </diagram>
</mxfile>